<?xml version="1.0" standalone="no"?>
<!DOCTYPE svg PUBLIC "-//W3C//DTD SVG 20010904//EN"
 "http://www.w3.org/TR/2001/REC-SVG-20010904/DTD/svg10.dtd">
<svg version="1.0" xmlns="http://www.w3.org/2000/svg"
 width="512.000000pt" height="512.000000pt" viewBox="0 0 512.000000 512.000000"
 preserveAspectRatio="xMidYMid meet">
<metadata>
Created by potrace 1.11, written by Peter Selinger 2001-2013
</metadata>
<g transform="translate(0.000000,512.000000) scale(0.100000,-0.100000)"
fill="#000000" stroke="none">
<path d="M2375 5114 c-156 -16 -310 -41 -427 -70 -850 -208 -1537 -841 -1814
-1670 -95 -284 -128 -494 -128 -814 0 -320 33 -530 128 -814 308 -921 1108
-1583 2081 -1722 190 -27 529 -25 720 4 433 67 820 230 1172 493 125 94 397
366 490 489 587 786 687 1800 264 2667 -135 276 -268 460 -496 688 -232 233
-415 363 -699 501 -344 166 -665 241 -1056 249 -107 1 -213 1 -235 -1z m510
-853 c55 -11 137 -32 183 -45 87 -26 103 -26 140 7 l22 21 46 -22 c36 -18 44
-26 39 -41 -11 -37 16 -67 107 -120 299 -175 552 -448 697 -751 126 -264 179
-522 168 -810 -6 -160 -16 -226 -53 -373 -154 -606 -640 -1091 -1243 -1241
-171 -43 -239 -51 -431 -51 -193 0 -260 8 -434 51 -599 150 -1085 636 -1240
1241 -43 171 -51 237 -50 448 0 177 3 215 27 326 151 714 702 1244 1425 1370
148 26 451 21 597 -10z"/>
<path d="M2349 4105 c-520 -74 -958 -393 -1197 -870 -42 -85 -97 -252 -123
-375 -31 -143 -33 -436 -5 -585 121 -650 631 -1141 1301 -1255 177 -30 426
-24 585 14 310 74 537 202 756 428 105 108 184 212 184 244 0 33 -42 74 -76
74 -27 0 -57 -27 -128 -115 l-40 -48 -15 23 c-54 82 -449 621 -475 648 -17 19
-47 42 -68 53 l-36 19 15 49 16 49 76 4 c62 4 141 27 441 125 201 66 372 123
381 127 13 6 17 -2 23 -40 24 -179 -17 -438 -103 -652 -35 -86 -39 -105 -30
-130 14 -41 62 -61 98 -41 45 25 121 212 162 402 26 123 36 354 20 483 -85
680 -586 1224 -1248 1355 -139 27 -379 34 -514 14z m-49 -592 c0 -401 2 -431
20 -470 l19 -43 -43 -25 c-23 -13 -53 -36 -66 -50 -28 -30 -35 -31 -62 -5 -28
26 -60 38 -473 170 -192 62 -358 115 -367 119 -15 5 -13 13 19 66 194 319 502
552 851 645 37 10 75 19 85 19 16 1 17 -26 17 -426z m615 408 c354 -92 656
-317 848 -631 40 -65 44 -76 29 -81 -9 -3 -75 -25 -147 -47 -375 -117 -635
-206 -679 -233 l-49 -30 -31 29 c-17 16 -48 39 -68 51 l-38 22 18 32 c15 29
17 76 20 470 2 334 6 437 15 437 7 0 44 -9 82 -19z m-283 -1032 c108 -23 181
-82 232 -189 27 -56 31 -76 31 -145 -1 -97 -22 -152 -91 -225 -125 -133 -321
-144 -461 -24 -157 134 -159 367 -5 506 50 45 67 54 134 72 66 18 93 19 160 5z
m-1057 -306 c333 -109 387 -124 439 -122 l59 3 18 -55 c10 -29 17 -54 16 -54
-14 -1 -81 -43 -95 -59 -23 -25 -479 -654 -486 -670 -11 -25 -160 174 -219
291 -111 218 -170 500 -152 719 6 74 9 84 23 78 10 -4 188 -63 397 -131z
m1095 -522 c0 -8 13 -38 29 -66 27 -48 305 -435 442 -617 l58 -76 -77 -33
c-211 -88 -330 -112 -557 -112 -226 0 -353 25 -558 110 l-88 36 29 31 c17 17
128 166 247 331 193 266 242 341 258 395 6 22 217 22 217 1z"/>
<path d="M2507 2765 c-57 -15 -94 -40 -124 -84 -62 -91 -39 -229 49 -294 65
-48 177 -50 245 -4 81 54 117 177 77 262 -46 98 -147 147 -247 120z m93 -165
c11 -11 20 -29 20 -40 0 -26 -34 -60 -62 -60 -50 0 -76 63 -41 102 21 24 58
23 83 -2z"/>
</g>
</svg>
